<svg xmlns="http://www.w3.org/2000/svg" xmlns:xlink="http://www.w3.org/1999/xlink" width="500" zoomAndPan="magnify" viewBox="0 0 375 149.999998" height="200" preserveAspectRatio="xMidYMid meet" version="1.0"><defs><g/><clipPath id="5a8f3bd29a"><path d="M 64 20 L 138 20 L 138 134.910156 L 64 134.910156 Z M 64 20 " clip-rule="nonzero"/></clipPath><clipPath id="04a0b792cf"><path d="M 119 20 L 174.230469 20 L 174.230469 134.910156 L 119 134.910156 Z M 119 20 " clip-rule="nonzero"/></clipPath></defs><g clip-path="url(#5a8f3bd29a)"><path fill="#29abe2" d="M 133.265625 106.636719 C 133.265625 106.636719 127.894531 99.304688 123.476562 100.378906 C 120.507812 101.089844 116.96875 103.066406 114.355469 106.851562 C 112.027344 110.183594 110.175781 113.679688 108.890625 117.511719 C 107.632812 121.320312 106.515625 125.199219 105.304688 129.03125 C 104.949219 130.175781 104.472656 131.316406 103.996094 132.410156 C 103.570312 133.386719 102.953125 134.269531 102.003906 134.886719 L 99.746094 134.910156 C 99.746094 134.886719 99.746094 134.863281 99.746094 134.839844 C 99.082031 134.625 98.390625 134.433594 97.726562 134.148438 C 95.183594 133.101562 93.117188 131.363281 91.242188 129.414062 C 87.535156 125.605469 84.613281 121.203125 82.023438 116.585938 C 74.492188 103.183594 69.363281 88.90625 66.128906 73.910156 C 64.871094 68.03125 63.992188 62.105469 64.109375 56.085938 C 64.253906 48.136719 66.15625 40.617188 70.5 33.878906 C 75.0625 26.765625 81.476562 22.289062 89.863281 20.765625 C 97.488281 19.410156 104.664062 20.71875 111.363281 24.480469 C 114.757812 26.382812 118.015625 28.5 121.316406 30.546875 C 124.285156 32.382812 127.277344 34.191406 130.582031 35.402344 C 132.742188 36.214844 134.976562 36.785156 137.28125 36.902344 C 137.445312 36.902344 137.613281 36.972656 137.777344 37 C 137.777344 37.070312 137.800781 37.117188 137.800781 37.1875 C 136.28125 37.546875 134.785156 37.996094 133.265625 38.257812 C 128.179688 39.140625 123.3125 38.1875 118.609375 36.308594 C 115.089844 34.902344 111.648438 33.332031 108.15625 31.90625 C 105.257812 30.714844 102.261719 29.761719 99.105469 29.523438 C 93.355469 29.097656 87.9375 30.046875 83.378906 33.929688 C 80.503906 36.378906 78.648438 39.542969 77.4375 43.089844 C 75.824219 47.828125 75.371094 52.753906 75.632812 57.726562 C 75.800781 60.726562 76.0625 63.703125 76.417969 66.675781 C 77.105469 72.152344 78.222656 77.554688 79.601562 82.882812 C 81.285156 89.40625 83.355469 95.808594 86.15625 101.949219 C 87.652344 105.257812 89.339844 108.46875 91.667969 111.324219 C 92.59375 112.445312 93.59375 113.492188 94.875 114.226562 C 95.089844 114.347656 95.304688 114.464844 95.515625 114.5625 C 97.25 115.324219 98.105469 115.132812 99.082031 113.539062 C 100.292969 111.585938 101.382812 109.539062 102.523438 107.539062 C 104.519531 104.042969 106.800781 100.757812 109.816406 98.042969 C 113.523438 94.710938 117.847656 92.738281 122.8125 92.117188 C 132.765625 91.476562 133.265625 106.636719 133.265625 106.636719 Z M 133.265625 106.636719 " fill-opacity="1" fill-rule="nonzero"/></g><g clip-path="url(#04a0b792cf)"><path fill="#0071bc" d="M 173.984375 55.964844 C 173.746094 60.84375 172.890625 65.675781 171.796875 70.4375 C 170.800781 74.910156 169.539062 79.339844 168.140625 83.695312 C 168.1875 83.695312 167.710938 85.3125 167.332031 86.144531 C 167.210938 86.5 167.09375 86.882812 166.949219 87.238281 C 166.878906 87.429688 166.832031 87.621094 166.738281 87.90625 C 166.714844 87.90625 162.507812 103.183594 147.945312 125.175781 C 146.164062 127.84375 143.882812 130.125 141.222656 131.960938 C 140.273438 132.625 139.226562 133.195312 138.160156 133.625 C 135.664062 134.648438 133.457031 134.101562 131.578125 132.195312 C 129.964844 130.554688 128.75 128.601562 127.824219 126.507812 C 126.160156 122.726562 124.59375 118.871094 122.980469 115.0625 C 122.171875 113.15625 121.363281 111.253906 120.105469 109.585938 C 119.914062 109.347656 119.699219 109.113281 119.460938 108.800781 C 121.457031 108.515625 123.214844 108.945312 124.761719 110.160156 C 126.160156 111.230469 127.160156 112.632812 128.039062 114.132812 C 129.132812 115.964844 130.175781 117.847656 131.316406 119.679688 C 131.933594 120.679688 132.71875 121.558594 133.765625 122.152344 C 135.285156 123.035156 136.351562 122.964844 137.660156 121.796875 C 139.558594 120.105469 140.9375 117.988281 142.316406 115.871094 C 151.296875 102.210938 157.378906 83.167969 157.472656 83.097656 C 159.847656 76.03125 161.773438 68.820312 162.914062 61.441406 C 163.601562 56.964844 163.933594 52.445312 163.769531 47.898438 C 163.625 44.160156 163.246094 40.449219 161.84375 36.925781 C 160.488281 33.40625 158.160156 30.882812 154.359375 29.929688 C 151.199219 29.144531 148.113281 29.476562 145.023438 30.335938 C 142.578125 31.023438 140.128906 31.691406 137.660156 32.191406 C 132.550781 33.191406 127.847656 32 123.550781 29.167969 C 122.125 28.238281 120.816406 27.144531 119.4375 26.144531 C 119.460938 26.097656 119.488281 26.074219 119.511719 26.027344 C 120.601562 26.167969 121.71875 26.3125 122.8125 26.40625 C 125.949219 26.71875 129.035156 26.359375 132.101562 25.742188 C 136.140625 24.933594 140.035156 23.527344 143.957031 22.289062 C 146.59375 21.457031 149.230469 20.671875 151.984375 20.386719 C 159.445312 19.578125 166.023438 22.195312 169.824219 29.644531 C 171.558594 33.046875 172.535156 36.664062 173.128906 40.402344 C 174.007812 45.566406 174.21875 50.777344 173.984375 55.964844 Z M 173.984375 55.964844 " fill-opacity="1" fill-rule="nonzero"/></g><g fill="#ffffff" fill-opacity="1"><g transform="translate(143.308778, 83.926684)"><g><path d="M 11.421875 -23.9375 C 13.367188 -23.9375 15.070312 -23.59375 16.53125 -22.90625 C 17.988281 -22.21875 19.203125 -21.289062 20.171875 -20.125 C 21.140625 -18.957031 21.867188 -17.65625 22.359375 -16.21875 C 22.847656 -14.789062 23.09375 -13.328125 23.09375 -11.828125 C 23.09375 -10.335938 22.847656 -8.890625 22.359375 -7.484375 C 21.867188 -6.085938 21.140625 -4.820312 20.171875 -3.6875 C 19.203125 -2.5625 17.988281 -1.664062 16.53125 -1 C 15.070312 -0.332031 13.367188 0 11.421875 0 L 2.921875 0 L 2.921875 -23.9375 Z M 11.421875 -3.421875 C 13.253906 -3.421875 14.785156 -3.828125 16.015625 -4.640625 C 17.253906 -5.453125 18.175781 -6.503906 18.78125 -7.796875 C 19.394531 -9.085938 19.703125 -10.429688 19.703125 -11.828125 C 19.703125 -12.890625 19.523438 -13.929688 19.171875 -14.953125 C 18.816406 -15.972656 18.296875 -16.90625 17.609375 -17.75 C 16.921875 -18.59375 16.0625 -19.265625 15.03125 -19.765625 C 14.007812 -20.265625 12.804688 -20.515625 11.421875 -20.515625 L 6.34375 -20.515625 L 6.34375 -3.421875 Z M 11.421875 -3.421875 "/></g></g></g><g fill="#ffffff" fill-opacity="1"><g transform="translate(168.187593, 83.926684)"><g><path d="M 5.828125 -16.078125 C 6.484375 -17.003906 7.257812 -17.675781 8.15625 -18.09375 C 9.050781 -18.507812 10.003906 -18.71875 11.015625 -18.71875 C 11.378906 -18.71875 11.738281 -18.691406 12.09375 -18.640625 C 12.457031 -18.597656 12.820312 -18.53125 13.1875 -18.4375 L 13.1875 -15.53125 C 12.644531 -15.6875 12.082031 -15.765625 11.5 -15.765625 C 10.476562 -15.765625 9.535156 -15.507812 8.671875 -15 C 7.816406 -14.488281 7.128906 -13.796875 6.609375 -12.921875 C 6.085938 -12.054688 5.828125 -11.0625 5.828125 -9.9375 L 5.828125 0 L 2.546875 0 L 2.546875 -18.3125 L 5.828125 -18.3125 Z M 5.828125 -16.078125 "/></g></g></g><g fill="#ffffff" fill-opacity="1"><g transform="translate(182.728543, 83.926684)"><g><path d="M 3.390625 -4.0625 C 4.023438 -4.0625 4.539062 -3.867188 4.9375 -3.484375 C 5.332031 -3.109375 5.53125 -2.601562 5.53125 -1.96875 C 5.53125 -1.46875 5.332031 -0.992188 4.9375 -0.546875 C 4.539062 -0.109375 4.023438 0.109375 3.390625 0.109375 C 2.828125 0.109375 2.347656 -0.109375 1.953125 -0.546875 C 1.554688 -0.992188 1.359375 -1.46875 1.359375 -1.96875 C 1.359375 -2.601562 1.554688 -3.109375 1.953125 -3.484375 C 2.347656 -3.867188 2.828125 -4.0625 3.390625 -4.0625 Z M 3.390625 -4.0625 "/></g></g></g><g fill="#ffffff" fill-opacity="1"><g transform="translate(190.117717, 83.926684)"><g><path d="M 1.328125 -11.796875 C 1.328125 -13.472656 1.628906 -15.039062 2.234375 -16.5 C 2.847656 -17.957031 3.660156 -19.226562 4.671875 -20.3125 C 5.710938 -21.375 6.96875 -22.242188 8.4375 -22.921875 C 9.90625 -23.597656 11.441406 -23.9375 13.046875 -23.9375 C 14.859375 -23.9375 16.515625 -23.566406 18.015625 -22.828125 C 19.523438 -22.097656 20.800781 -21.070312 21.84375 -19.75 C 22.894531 -18.425781 23.648438 -16.875 24.109375 -15.09375 L 20.71875 -15.09375 C 20.082031 -16.875 19.082031 -18.226562 17.71875 -19.15625 C 16.351562 -20.082031 14.796875 -20.546875 13.046875 -20.546875 C 11.921875 -20.546875 10.828125 -20.300781 9.765625 -19.8125 C 8.703125 -19.332031 7.796875 -18.695312 7.046875 -17.90625 C 6.304688 -17.132812 5.71875 -16.226562 5.28125 -15.1875 C 4.851562 -14.144531 4.640625 -13.015625 4.640625 -11.796875 C 4.640625 -10.617188 4.847656 -9.507812 5.265625 -8.46875 C 5.691406 -7.4375 6.273438 -6.523438 7.015625 -5.734375 C 7.765625 -4.960938 8.675781 -4.347656 9.75 -3.890625 C 10.820312 -3.441406 11.921875 -3.21875 13.046875 -3.21875 C 14.859375 -3.21875 16.46875 -3.710938 17.875 -4.703125 C 19.289062 -5.703125 20.304688 -7.097656 20.921875 -8.890625 L 24.28125 -8.890625 C 23.820312 -7.097656 23.0625 -5.519531 22 -4.15625 C 20.9375 -2.789062 19.640625 -1.726562 18.109375 -0.96875 C 16.585938 -0.207031 14.898438 0.171875 13.046875 0.171875 C 11.441406 0.171875 9.921875 -0.132812 8.484375 -0.75 C 7.054688 -1.375 5.820312 -2.234375 4.78125 -3.328125 C 3.757812 -4.410156 2.925781 -5.679688 2.28125 -7.140625 C 1.644531 -8.597656 1.328125 -10.148438 1.328125 -11.796875 Z M 1.328125 -11.796875 "/></g></g></g><g fill="#ffffff" fill-opacity="1"><g transform="translate(215.979484, 83.926684)"><g><path d="M 5.734375 -16.078125 C 6.429688 -17.066406 7.253906 -17.734375 8.203125 -18.078125 C 9.148438 -18.429688 10.203125 -18.609375 11.359375 -18.609375 C 13.234375 -18.609375 14.757812 -18.242188 15.9375 -17.515625 C 17.113281 -16.796875 17.976562 -15.78125 18.53125 -14.46875 C 19.082031 -13.164062 19.359375 -11.628906 19.359375 -9.859375 L 19.359375 0 L 16.03125 0 L 16.03125 -9.828125 C 16.03125 -10.984375 15.898438 -12 15.640625 -12.875 C 15.378906 -13.757812 14.894531 -14.445312 14.1875 -14.9375 C 13.476562 -15.425781 12.457031 -15.671875 11.125 -15.671875 C 9.96875 -15.671875 8.988281 -15.414062 8.1875 -14.90625 C 7.382812 -14.394531 6.773438 -13.707031 6.359375 -12.84375 C 5.941406 -11.988281 5.734375 -11.03125 5.734375 -9.96875 L 5.734375 0 L 2.4375 0 L 2.4375 -23.734375 L 5.734375 -23.734375 Z M 5.734375 -16.078125 "/></g></g></g><g fill="#ffffff" fill-opacity="1"><g transform="translate(238.248414, 83.926684)"><g><path d="M 21.59375 0 L 18.28125 0 L 18.28125 -2.46875 C 17.84375 -1.8125 17.25 -1.28125 16.5 -0.875 C 15.757812 -0.46875 14.972656 -0.175781 14.140625 0 C 13.304688 0.175781 12.503906 0.28125 11.734375 0.3125 C 9.609375 0.3125 7.8125 -0.132812 6.34375 -1.03125 C 4.875 -1.925781 3.757812 -3.101562 3 -4.5625 C 2.238281 -6.019531 1.859375 -7.582031 1.859375 -9.25 C 1.859375 -10.90625 2.242188 -12.441406 3.015625 -13.859375 C 3.785156 -15.285156 4.90625 -16.4375 6.375 -17.3125 C 7.84375 -18.195312 9.601562 -18.640625 11.65625 -18.640625 C 12.425781 -18.640625 13.21875 -18.566406 14.03125 -18.421875 C 14.84375 -18.273438 15.625 -18.003906 16.375 -17.609375 C 17.125 -17.210938 17.769531 -16.644531 18.3125 -15.90625 L 18.28125 -18.34375 L 21.59375 -18.34375 Z M 18.28125 -9.1875 C 18.28125 -10.65625 17.945312 -11.867188 17.28125 -12.828125 C 16.613281 -13.796875 15.769531 -14.519531 14.75 -15 C 13.726562 -15.488281 12.695312 -15.734375 11.65625 -15.734375 C 10.320312 -15.734375 9.171875 -15.441406 8.203125 -14.859375 C 7.234375 -14.285156 6.488281 -13.515625 5.96875 -12.546875 C 5.445312 -11.578125 5.1875 -10.476562 5.1875 -9.25 C 5.1875 -8.101562 5.445312 -7.023438 5.96875 -6.015625 C 6.488281 -5.015625 7.226562 -4.203125 8.1875 -3.578125 C 9.144531 -2.953125 10.300781 -2.640625 11.65625 -2.640625 C 12.675781 -2.640625 13.691406 -2.875 14.703125 -3.34375 C 15.722656 -3.820312 16.570312 -4.546875 17.25 -5.515625 C 17.9375 -6.492188 18.28125 -7.71875 18.28125 -9.1875 Z M 18.28125 -9.1875 "/></g></g></g><g fill="#ffffff" fill-opacity="1"><g transform="translate(262.347654, 83.926684)"><g><path d="M 5.828125 -16.078125 C 6.484375 -17.003906 7.257812 -17.675781 8.15625 -18.09375 C 9.050781 -18.507812 10.003906 -18.71875 11.015625 -18.71875 C 11.378906 -18.71875 11.738281 -18.691406 12.09375 -18.640625 C 12.457031 -18.597656 12.820312 -18.53125 13.1875 -18.4375 L 13.1875 -15.53125 C 12.644531 -15.6875 12.082031 -15.765625 11.5 -15.765625 C 10.476562 -15.765625 9.535156 -15.507812 8.671875 -15 C 7.816406 -14.488281 7.128906 -13.796875 6.609375 -12.921875 C 6.085938 -12.054688 5.828125 -11.0625 5.828125 -9.9375 L 5.828125 0 L 2.546875 0 L 2.546875 -18.3125 L 5.828125 -18.3125 Z M 5.828125 -16.078125 "/></g></g></g><g fill="#ffffff" fill-opacity="1"><g transform="translate(276.888598, 83.926684)"><g><path d="M 2.546875 0 L 2.546875 -23.734375 L 5.859375 -23.734375 L 5.859375 0 Z M 2.546875 0 "/></g></g></g><g fill="#ffffff" fill-opacity="1"><g transform="translate(285.599675, 83.926684)"><g><path d="M 20.546875 -9.96875 C 20.566406 -9.875 20.578125 -9.78125 20.578125 -9.6875 C 20.578125 -9.601562 20.578125 -9.503906 20.578125 -9.390625 C 20.578125 -9.023438 20.546875 -8.6875 20.484375 -8.375 L 4.953125 -8.375 C 4.953125 -7.175781 5.273438 -6.144531 5.921875 -5.28125 C 6.566406 -4.425781 7.367188 -3.765625 8.328125 -3.296875 C 9.285156 -2.835938 10.21875 -2.609375 11.125 -2.609375 C 12.25 -2.609375 13.300781 -2.859375 14.28125 -3.359375 C 15.269531 -3.859375 16.035156 -4.625 16.578125 -5.65625 L 20 -5.65625 C 19.550781 -4.320312 18.863281 -3.207031 17.9375 -2.3125 C 17.007812 -1.425781 15.953125 -0.757812 14.765625 -0.3125 C 13.578125 0.125 12.351562 0.34375 11.09375 0.34375 C 9.914062 0.34375 8.757812 0.144531 7.625 -0.25 C 6.5 -0.644531 5.484375 -1.238281 4.578125 -2.03125 C 3.671875 -2.820312 2.953125 -3.8125 2.421875 -5 C 1.890625 -6.1875 1.625 -7.570312 1.625 -9.15625 C 1.625 -10.738281 1.890625 -12.113281 2.421875 -13.28125 C 2.953125 -14.457031 3.671875 -15.441406 4.578125 -16.234375 C 5.484375 -17.023438 6.5 -17.617188 7.625 -18.015625 C 8.757812 -18.410156 9.9375 -18.609375 11.15625 -18.609375 C 12.664062 -18.609375 14.113281 -18.285156 15.5 -17.640625 C 16.894531 -17.003906 18.054688 -16.046875 18.984375 -14.765625 C 19.910156 -13.484375 20.429688 -11.882812 20.546875 -9.96875 Z M 17.0625 -11.125 C 16.851562 -12.226562 16.445312 -13.113281 15.84375 -13.78125 C 15.25 -14.445312 14.539062 -14.929688 13.71875 -15.234375 C 12.894531 -15.546875 12.039062 -15.703125 11.15625 -15.703125 C 10.269531 -15.703125 9.40625 -15.546875 8.5625 -15.234375 C 7.71875 -14.929688 6.984375 -14.441406 6.359375 -13.765625 C 5.734375 -13.085938 5.304688 -12.207031 5.078125 -11.125 Z M 17.0625 -11.125 "/></g></g></g><g fill="#ffffff" fill-opacity="1"><g transform="translate(308.275351, 83.926684)"><g><path d="M 4.84375 -13.046875 C 4.84375 -12.484375 4.984375 -12.039062 5.265625 -11.71875 C 5.554688 -11.40625 5.925781 -11.179688 6.375 -11.046875 C 6.820312 -10.910156 7.289062 -10.828125 7.78125 -10.796875 C 8.269531 -10.765625 8.71875 -10.738281 9.125 -10.71875 C 9.976562 -10.644531 10.835938 -10.507812 11.703125 -10.3125 C 12.578125 -10.125 13.375 -9.832031 14.09375 -9.4375 C 14.820312 -9.039062 15.40625 -8.5 15.84375 -7.8125 C 16.289062 -7.125 16.515625 -6.257812 16.515625 -5.21875 C 16.515625 -4.15625 16.28125 -3.265625 15.8125 -2.546875 C 15.351562 -1.835938 14.742188 -1.273438 13.984375 -0.859375 C 13.222656 -0.441406 12.390625 -0.144531 11.484375 0.03125 C 10.585938 0.21875 9.707031 0.3125 8.84375 0.3125 C 7.582031 0.3125 6.390625 0.117188 5.265625 -0.265625 C 4.148438 -0.648438 3.226562 -1.273438 2.5 -2.140625 C 1.78125 -3.015625 1.375 -4.175781 1.28125 -5.625 L 4.609375 -5.625 C 4.679688 -4.613281 5.132812 -3.851562 5.96875 -3.34375 C 6.800781 -2.832031 7.785156 -2.578125 8.921875 -2.578125 C 9.484375 -2.578125 10.09375 -2.648438 10.75 -2.796875 C 11.40625 -2.941406 11.972656 -3.210938 12.453125 -3.609375 C 12.941406 -4.003906 13.1875 -4.566406 13.1875 -5.296875 C 13.1875 -5.804688 13.035156 -6.210938 12.734375 -6.515625 C 12.429688 -6.828125 12.039062 -7.066406 11.5625 -7.234375 C 11.082031 -7.410156 10.59375 -7.53125 10.09375 -7.59375 C 9.601562 -7.664062 9.15625 -7.710938 8.75 -7.734375 C 7.9375 -7.773438 7.101562 -7.878906 6.25 -8.046875 C 5.40625 -8.222656 4.625 -8.5 3.90625 -8.875 C 3.195312 -9.257812 2.628906 -9.785156 2.203125 -10.453125 C 1.773438 -11.117188 1.5625 -11.960938 1.5625 -12.984375 C 1.5625 -14.410156 1.921875 -15.539062 2.640625 -16.375 C 3.367188 -17.207031 4.296875 -17.804688 5.421875 -18.171875 C 6.554688 -18.535156 7.710938 -18.71875 8.890625 -18.71875 C 10.109375 -18.71875 11.234375 -18.535156 12.265625 -18.171875 C 13.304688 -17.804688 14.164062 -17.226562 14.84375 -16.4375 C 15.53125 -15.644531 15.90625 -14.609375 15.96875 -13.328125 L 12.6875 -13.328125 C 12.59375 -14.140625 12.164062 -14.742188 11.40625 -15.140625 C 10.65625 -15.535156 9.78125 -15.734375 8.78125 -15.734375 C 7.757812 -15.734375 6.847656 -15.523438 6.046875 -15.109375 C 5.242188 -14.691406 4.84375 -14.003906 4.84375 -13.046875 Z M 4.84375 -13.046875 "/></g></g></g><g fill="#ffffff" fill-opacity="1"><g transform="translate(145.312684, 107.340813)"><g><path d="M 5.515625 -11.5625 C 6.453125 -11.5625 7.269531 -11.394531 7.96875 -11.0625 C 8.675781 -10.726562 9.265625 -10.28125 9.734375 -9.71875 C 10.210938 -9.15625 10.566406 -8.523438 10.796875 -7.828125 C 11.035156 -7.140625 11.15625 -6.4375 11.15625 -5.71875 C 11.15625 -5 11.035156 -4.300781 10.796875 -3.625 C 10.566406 -2.945312 10.210938 -2.332031 9.734375 -1.78125 C 9.265625 -1.238281 8.675781 -0.804688 7.96875 -0.484375 C 7.269531 -0.160156 6.453125 0 5.515625 0 L 1.40625 0 L 1.40625 -11.5625 Z M 5.515625 -1.65625 C 6.398438 -1.65625 7.140625 -1.847656 7.734375 -2.234375 C 8.328125 -2.628906 8.769531 -3.140625 9.0625 -3.765625 C 9.363281 -4.390625 9.515625 -5.039062 9.515625 -5.71875 C 9.515625 -6.226562 9.425781 -6.726562 9.25 -7.21875 C 9.082031 -7.707031 8.832031 -8.15625 8.5 -8.5625 C 8.164062 -8.976562 7.75 -9.304688 7.25 -9.546875 C 6.757812 -9.785156 6.179688 -9.90625 5.515625 -9.90625 L 3.0625 -9.90625 L 3.0625 -1.65625 Z M 5.515625 -1.65625 "/></g></g></g><g fill="#ffffff" fill-opacity="1"><g transform="translate(158.503401, 107.340813)"><g><path d="M 9.921875 -4.8125 C 9.929688 -4.769531 9.9375 -4.726562 9.9375 -4.6875 C 9.9375 -4.644531 9.9375 -4.59375 9.9375 -4.53125 C 9.9375 -4.363281 9.921875 -4.203125 9.890625 -4.046875 L 2.390625 -4.046875 C 2.390625 -3.460938 2.546875 -2.960938 2.859375 -2.546875 C 3.171875 -2.140625 3.554688 -1.820312 4.015625 -1.59375 C 4.484375 -1.375 4.9375 -1.265625 5.375 -1.265625 C 5.914062 -1.265625 6.421875 -1.382812 6.890625 -1.625 C 7.367188 -1.863281 7.738281 -2.234375 8 -2.734375 L 9.65625 -2.734375 C 9.4375 -2.085938 9.101562 -1.546875 8.65625 -1.109375 C 8.207031 -0.679688 7.695312 -0.363281 7.125 -0.15625 C 6.550781 0.0507812 5.960938 0.15625 5.359375 0.15625 C 4.785156 0.15625 4.222656 0.0625 3.671875 -0.125 C 3.128906 -0.3125 2.640625 -0.597656 2.203125 -0.984375 C 1.773438 -1.367188 1.429688 -1.847656 1.171875 -2.421875 C 0.910156 -2.992188 0.78125 -3.660156 0.78125 -4.421875 C 0.78125 -5.179688 0.910156 -5.84375 1.171875 -6.40625 C 1.429688 -6.976562 1.773438 -7.457031 2.203125 -7.84375 C 2.640625 -8.226562 3.128906 -8.515625 3.671875 -8.703125 C 4.222656 -8.890625 4.796875 -8.984375 5.390625 -8.984375 C 6.117188 -8.984375 6.816406 -8.828125 7.484375 -8.515625 C 8.160156 -8.210938 8.722656 -7.75 9.171875 -7.125 C 9.617188 -6.507812 9.867188 -5.738281 9.921875 -4.8125 Z M 8.234375 -5.375 C 8.140625 -5.90625 7.945312 -6.332031 7.65625 -6.65625 C 7.363281 -6.976562 7.019531 -7.210938 6.625 -7.359375 C 6.226562 -7.503906 5.816406 -7.578125 5.390625 -7.578125 C 4.960938 -7.578125 4.539062 -7.503906 4.125 -7.359375 C 3.71875 -7.210938 3.363281 -6.972656 3.0625 -6.640625 C 2.769531 -6.316406 2.566406 -5.894531 2.453125 -5.375 Z M 8.234375 -5.375 "/></g></g></g><g fill="#ffffff" fill-opacity="1"><g transform="translate(170.630388, 107.340813)"><g><path d="M 2.828125 -7.765625 C 3.160156 -8.242188 3.554688 -8.566406 4.015625 -8.734375 C 4.484375 -8.898438 4.992188 -8.984375 5.546875 -8.984375 C 6.453125 -8.984375 7.1875 -8.804688 7.75 -8.453125 C 8.3125 -8.109375 8.726562 -7.617188 9 -6.984375 C 9.269531 -6.359375 9.40625 -5.617188 9.40625 -4.765625 L 9.40625 0 L 7.8125 0 L 7.8125 -4.75 C 7.8125 -5.300781 7.75 -5.789062 7.625 -6.21875 C 7.5 -6.644531 7.265625 -6.972656 6.921875 -7.203125 C 6.578125 -7.441406 6.082031 -7.5625 5.4375 -7.5625 C 4.875 -7.5625 4.398438 -7.4375 4.015625 -7.1875 C 3.628906 -6.945312 3.332031 -6.617188 3.125 -6.203125 C 2.925781 -5.785156 2.828125 -5.320312 2.828125 -4.8125 L 2.828125 0 L 1.234375 0 L 1.234375 -8.859375 L 2.828125 -8.859375 Z M 2.828125 -7.765625 "/></g></g></g><g fill="#ffffff" fill-opacity="1"><g transform="translate(182.561005, 107.340813)"><g><path d="M 3.328125 -8.859375 L 5.265625 -8.859375 L 5.265625 -7.578125 L 3.328125 -7.578125 L 3.328125 -2.59375 C 3.328125 -2.0625 3.445312 -1.710938 3.6875 -1.546875 C 3.925781 -1.378906 4.25 -1.296875 4.65625 -1.296875 C 4.75 -1.296875 4.851562 -1.296875 4.96875 -1.296875 C 5.082031 -1.304688 5.203125 -1.316406 5.328125 -1.328125 L 5.328125 0.015625 C 5.191406 0.0234375 5.0625 0.03125 4.9375 0.03125 C 4.820312 0.0390625 4.703125 0.046875 4.578125 0.046875 C 4.003906 0.046875 3.5 -0.03125 3.0625 -0.1875 C 2.632812 -0.34375 2.300781 -0.613281 2.0625 -1 C 1.832031 -1.382812 1.71875 -1.921875 1.71875 -2.609375 L 1.71875 -7.578125 L 0.390625 -7.578125 L 0.390625 -8.859375 L 1.71875 -8.859375 L 1.71875 -10.515625 L 3.328125 -10.828125 Z M 3.328125 -8.859375 "/></g></g></g><g fill="#ffffff" fill-opacity="1"><g transform="translate(189.516637, 107.340813)"><g><path d="M 10.4375 0 L 8.828125 0 L 8.828125 -1.203125 C 8.617188 -0.878906 8.332031 -0.617188 7.96875 -0.421875 C 7.613281 -0.222656 7.234375 -0.0820312 6.828125 0 C 6.421875 0.0820312 6.035156 0.128906 5.671875 0.140625 C 4.640625 0.140625 3.769531 -0.0703125 3.0625 -0.5 C 2.351562 -0.925781 1.816406 -1.492188 1.453125 -2.203125 C 1.085938 -2.910156 0.90625 -3.664062 0.90625 -4.46875 C 0.90625 -5.269531 1.085938 -6.015625 1.453125 -6.703125 C 1.828125 -7.390625 2.367188 -7.941406 3.078125 -8.359375 C 3.785156 -8.785156 4.640625 -9 5.640625 -9 C 6.003906 -9 6.382812 -8.960938 6.78125 -8.890625 C 7.175781 -8.828125 7.550781 -8.695312 7.90625 -8.5 C 8.269531 -8.3125 8.582031 -8.039062 8.84375 -7.6875 L 8.828125 -8.859375 L 10.4375 -8.859375 Z M 8.828125 -4.4375 C 8.828125 -5.144531 8.664062 -5.726562 8.34375 -6.1875 C 8.019531 -6.65625 7.613281 -7.003906 7.125 -7.234375 C 6.632812 -7.472656 6.140625 -7.59375 5.640625 -7.59375 C 4.992188 -7.59375 4.4375 -7.453125 3.96875 -7.171875 C 3.5 -6.898438 3.132812 -6.53125 2.875 -6.0625 C 2.625 -5.59375 2.5 -5.0625 2.5 -4.46875 C 2.5 -3.914062 2.625 -3.394531 2.875 -2.90625 C 3.132812 -2.414062 3.492188 -2.019531 3.953125 -1.71875 C 4.421875 -1.425781 4.984375 -1.28125 5.640625 -1.28125 C 6.128906 -1.28125 6.617188 -1.394531 7.109375 -1.625 C 7.597656 -1.851562 8.003906 -2.203125 8.328125 -2.671875 C 8.660156 -3.140625 8.828125 -3.726562 8.828125 -4.4375 Z M 8.828125 -4.4375 "/></g></g></g><g fill="#ffffff" fill-opacity="1"><g transform="translate(202.330961, 107.340813)"><g><path d="M 1.234375 0 L 1.234375 -11.46875 L 2.828125 -11.46875 L 2.828125 0 Z M 1.234375 0 "/></g></g></g><g fill="#ffffff" fill-opacity="1"><g transform="translate(207.715551, 107.340813)"><g/></g></g><g fill="#ffffff" fill-opacity="1"><g transform="translate(213.116503, 107.340813)"><g><path d="M 0.640625 -5.703125 C 0.640625 -6.503906 0.785156 -7.253906 1.078125 -7.953125 C 1.367188 -8.660156 1.765625 -9.28125 2.265625 -9.8125 C 2.765625 -10.320312 3.367188 -10.738281 4.078125 -11.0625 C 4.785156 -11.394531 5.523438 -11.5625 6.296875 -11.5625 C 7.171875 -11.5625 7.972656 -11.382812 8.703125 -11.03125 C 9.429688 -10.675781 10.046875 -10.175781 10.546875 -9.53125 C 11.054688 -8.894531 11.421875 -8.144531 11.640625 -7.28125 L 10 -7.28125 C 9.695312 -8.144531 9.210938 -8.800781 8.546875 -9.25 C 7.890625 -9.695312 7.140625 -9.921875 6.296875 -9.921875 C 5.753906 -9.921875 5.226562 -9.800781 4.71875 -9.5625 C 4.207031 -9.332031 3.769531 -9.023438 3.40625 -8.640625 C 3.039062 -8.273438 2.753906 -7.835938 2.546875 -7.328125 C 2.347656 -6.828125 2.25 -6.285156 2.25 -5.703125 C 2.25 -5.128906 2.347656 -4.59375 2.546875 -4.09375 C 2.742188 -3.59375 3.023438 -3.148438 3.390625 -2.765625 C 3.753906 -2.390625 4.191406 -2.09375 4.703125 -1.875 C 5.222656 -1.664062 5.753906 -1.5625 6.296875 -1.5625 C 7.171875 -1.5625 7.945312 -1.800781 8.625 -2.28125 C 9.3125 -2.757812 9.804688 -3.429688 10.109375 -4.296875 L 11.71875 -4.296875 C 11.5 -3.429688 11.132812 -2.664062 10.625 -2 C 10.113281 -1.34375 9.488281 -0.832031 8.75 -0.46875 C 8.007812 -0.101562 7.191406 0.078125 6.296875 0.078125 C 5.523438 0.078125 4.789062 -0.0664062 4.09375 -0.359375 C 3.40625 -0.660156 2.8125 -1.078125 2.3125 -1.609375 C 1.820312 -2.128906 1.421875 -2.738281 1.109375 -3.4375 C 0.796875 -4.144531 0.640625 -4.898438 0.640625 -5.703125 Z M 0.640625 -5.703125 "/></g></g></g><g fill="#ffffff" fill-opacity="1"><g transform="translate(226.781804, 107.340813)"><g><path d="M 1.234375 0 L 1.234375 -11.46875 L 2.828125 -11.46875 L 2.828125 0 Z M 1.234375 0 "/></g></g></g><g fill="#ffffff" fill-opacity="1"><g transform="translate(232.16639, 107.340813)"><g><path d="M 1.125 -11.140625 C 1.125 -11.441406 1.226562 -11.664062 1.4375 -11.8125 C 1.65625 -11.96875 1.890625 -12.046875 2.140625 -12.046875 C 2.390625 -12.046875 2.613281 -11.972656 2.8125 -11.828125 C 3.019531 -11.679688 3.125 -11.453125 3.125 -11.140625 C 3.125 -10.828125 3.019531 -10.59375 2.8125 -10.4375 C 2.601562 -10.28125 2.375 -10.203125 2.125 -10.203125 C 1.882812 -10.203125 1.65625 -10.28125 1.4375 -10.4375 C 1.226562 -10.59375 1.125 -10.828125 1.125 -11.140625 Z M 1.328125 -8.953125 L 1.328125 0 L 2.9375 0 L 2.9375 -8.953125 Z M 1.328125 -8.953125 "/></g></g></g><g fill="#ffffff" fill-opacity="1"><g transform="translate(237.894653, 107.340813)"><g><path d="M 2.828125 -7.765625 C 3.160156 -8.242188 3.554688 -8.566406 4.015625 -8.734375 C 4.484375 -8.898438 4.992188 -8.984375 5.546875 -8.984375 C 6.453125 -8.984375 7.1875 -8.804688 7.75 -8.453125 C 8.3125 -8.109375 8.726562 -7.617188 9 -6.984375 C 9.269531 -6.359375 9.40625 -5.617188 9.40625 -4.765625 L 9.40625 0 L 7.8125 0 L 7.8125 -4.75 C 7.8125 -5.300781 7.75 -5.789062 7.625 -6.21875 C 7.5 -6.644531 7.265625 -6.972656 6.921875 -7.203125 C 6.578125 -7.441406 6.082031 -7.5625 5.4375 -7.5625 C 4.875 -7.5625 4.398438 -7.4375 4.015625 -7.1875 C 3.628906 -6.945312 3.332031 -6.617188 3.125 -6.203125 C 2.925781 -5.785156 2.828125 -5.320312 2.828125 -4.8125 L 2.828125 0 L 1.234375 0 L 1.234375 -8.859375 L 2.828125 -8.859375 Z M 2.828125 -7.765625 "/></g></g></g><g fill="#ffffff" fill-opacity="1"><g transform="translate(249.825268, 107.340813)"><g><path d="M 1.125 -11.140625 C 1.125 -11.441406 1.226562 -11.664062 1.4375 -11.8125 C 1.65625 -11.96875 1.890625 -12.046875 2.140625 -12.046875 C 2.390625 -12.046875 2.613281 -11.972656 2.8125 -11.828125 C 3.019531 -11.679688 3.125 -11.453125 3.125 -11.140625 C 3.125 -10.828125 3.019531 -10.59375 2.8125 -10.4375 C 2.601562 -10.28125 2.375 -10.203125 2.125 -10.203125 C 1.882812 -10.203125 1.65625 -10.28125 1.4375 -10.4375 C 1.226562 -10.59375 1.125 -10.828125 1.125 -11.140625 Z M 1.328125 -8.953125 L 1.328125 0 L 2.9375 0 L 2.9375 -8.953125 Z M 1.328125 -8.953125 "/></g></g></g><g fill="#ffffff" fill-opacity="1"><g transform="translate(255.553531, 107.340813)"><g><path d="M 9.90625 -3.375 C 9.757812 -2.582031 9.457031 -1.925781 9 -1.40625 C 8.539062 -0.894531 7.992188 -0.507812 7.359375 -0.25 C 6.734375 0 6.082031 0.125 5.40625 0.125 C 4.832031 0.125 4.273438 0.03125 3.734375 -0.15625 C 3.191406 -0.34375 2.703125 -0.628906 2.265625 -1.015625 C 1.828125 -1.398438 1.476562 -1.875 1.21875 -2.4375 C 0.957031 -3.007812 0.828125 -3.675781 0.828125 -4.4375 C 0.828125 -5.195312 0.957031 -5.863281 1.21875 -6.4375 C 1.476562 -7.007812 1.828125 -7.484375 2.265625 -7.859375 C 2.710938 -8.242188 3.207031 -8.53125 3.75 -8.71875 C 4.289062 -8.90625 4.851562 -9 5.4375 -9 C 6.113281 -9 6.757812 -8.867188 7.375 -8.609375 C 8 -8.359375 8.539062 -7.972656 9 -7.453125 C 9.457031 -6.929688 9.757812 -6.273438 9.90625 -5.484375 L 8.25 -5.484375 C 8.050781 -6.191406 7.6875 -6.71875 7.15625 -7.0625 C 6.632812 -7.40625 6.066406 -7.578125 5.453125 -7.578125 C 4.960938 -7.578125 4.484375 -7.460938 4.015625 -7.234375 C 3.554688 -7.003906 3.175781 -6.65625 2.875 -6.1875 C 2.582031 -5.726562 2.4375 -5.144531 2.4375 -4.4375 C 2.4375 -3.726562 2.582031 -3.140625 2.875 -2.671875 C 3.175781 -2.203125 3.554688 -1.851562 4.015625 -1.625 C 4.484375 -1.394531 4.96875 -1.28125 5.46875 -1.28125 C 6.082031 -1.28125 6.648438 -1.453125 7.171875 -1.796875 C 7.691406 -2.148438 8.050781 -2.675781 8.25 -3.375 Z M 9.90625 -3.375 "/></g></g></g></svg>